<svg width="39" height="13" viewBox="0 0 39 13" fill="none" xmlns="http://www.w3.org/2000/svg">
<path d="M6.16406 9.75H5.25586V3.72949L3.43457 4.39844V3.57812L6.02246 2.60645H6.16406V9.75ZM14.7529 6.625C14.5641 6.84961 14.3379 7.03027 14.0742 7.16699C13.8138 7.30371 13.5273 7.37207 13.2148 7.37207C12.8047 7.37207 12.4466 7.27116 12.1406 7.06934C11.8379 6.86751 11.6035 6.58431 11.4375 6.21973C11.2715 5.85189 11.1885 5.44661 11.1885 5.00391C11.1885 4.52865 11.278 4.10059 11.457 3.71973C11.6393 3.33887 11.8965 3.04753 12.2285 2.8457C12.5605 2.64388 12.9479 2.54297 13.3906 2.54297C14.0938 2.54297 14.6471 2.80664 15.0508 3.33398C15.4577 3.85807 15.6611 4.57422 15.6611 5.48242V5.74609C15.6611 7.12956 15.3877 8.1403 14.8408 8.77832C14.2939 9.41309 13.4688 9.73861 12.3652 9.75488H12.1895V8.99316H12.3799C13.1253 8.98014 13.6982 8.78646 14.0986 8.41211C14.499 8.03451 14.7171 7.4388 14.7529 6.625ZM13.3613 6.625C13.6641 6.625 13.9424 6.53223 14.1963 6.34668C14.4535 6.16113 14.6406 5.93164 14.7578 5.6582V5.29688C14.7578 4.70443 14.6292 4.22266 14.3721 3.85156C14.1149 3.48047 13.7894 3.29492 13.3955 3.29492C12.9984 3.29492 12.6794 3.44792 12.4385 3.75391C12.1976 4.05664 12.0771 4.45703 12.0771 4.95508C12.0771 5.4401 12.1927 5.84049 12.4238 6.15625C12.6582 6.46875 12.9707 6.625 13.3613 6.625ZM20.3682 6.625C20.1794 6.84961 19.9531 7.03027 19.6895 7.16699C19.429 7.30371 19.1426 7.37207 18.8301 7.37207C18.4199 7.37207 18.0618 7.27116 17.7559 7.06934C17.4531 6.86751 17.2188 6.58431 17.0527 6.21973C16.8867 5.85189 16.8037 5.44661 16.8037 5.00391C16.8037 4.52865 16.8932 4.10059 17.0723 3.71973C17.2546 3.33887 17.5117 3.04753 17.8438 2.8457C18.1758 2.64388 18.5632 2.54297 19.0059 2.54297C19.709 2.54297 20.2624 2.80664 20.666 3.33398C21.0729 3.85807 21.2764 4.57422 21.2764 5.48242V5.74609C21.2764 7.12956 21.0029 8.1403 20.4561 8.77832C19.9092 9.41309 19.084 9.73861 17.9805 9.75488H17.8047V8.99316H17.9951C18.7406 8.98014 19.3135 8.78646 19.7139 8.41211C20.1143 8.03451 20.3324 7.4388 20.3682 6.625ZM18.9766 6.625C19.2793 6.625 19.5576 6.53223 19.8115 6.34668C20.0687 6.16113 20.2559 5.93164 20.373 5.6582V5.29688C20.373 4.70443 20.2445 4.22266 19.9873 3.85156C19.7301 3.48047 19.4046 3.29492 19.0107 3.29492C18.6136 3.29492 18.2946 3.44792 18.0537 3.75391C17.8128 4.05664 17.6924 4.45703 17.6924 4.95508C17.6924 5.4401 17.8079 5.84049 18.0391 6.15625C18.2734 6.46875 18.5859 6.625 18.9766 6.625ZM25.9834 6.625C25.7946 6.84961 25.5684 7.03027 25.3047 7.16699C25.0443 7.30371 24.7578 7.37207 24.4453 7.37207C24.0352 7.37207 23.6771 7.27116 23.3711 7.06934C23.0684 6.86751 22.834 6.58431 22.668 6.21973C22.502 5.85189 22.4189 5.44661 22.4189 5.00391C22.4189 4.52865 22.5085 4.10059 22.6875 3.71973C22.8698 3.33887 23.127 3.04753 23.459 2.8457C23.791 2.64388 24.1784 2.54297 24.6211 2.54297C25.3242 2.54297 25.8776 2.80664 26.2812 3.33398C26.6882 3.85807 26.8916 4.57422 26.8916 5.48242V5.74609C26.8916 7.12956 26.6182 8.1403 26.0713 8.77832C25.5244 9.41309 24.6992 9.73861 23.5957 9.75488H23.4199V8.99316H23.6104C24.3558 8.98014 24.9287 8.78646 25.3291 8.41211C25.7295 8.03451 25.9476 7.4388 25.9834 6.625ZM24.5918 6.625C24.8945 6.625 25.1729 6.53223 25.4268 6.34668C25.6839 6.16113 25.8711 5.93164 25.9883 5.6582V5.29688C25.9883 4.70443 25.8597 4.22266 25.6025 3.85156C25.3454 3.48047 25.0199 3.29492 24.626 3.29492C24.2288 3.29492 23.9098 3.44792 23.6689 3.75391C23.4281 4.05664 23.3076 4.45703 23.3076 4.95508C23.3076 5.4401 23.4232 5.84049 23.6543 6.15625C23.8887 6.46875 24.2012 6.625 24.5918 6.625ZM33.7568 8.40723H32.1211V9.75H31.1885V8.40723H30.1777V7.63574H31.1885V6.9668H30.1777V6.2002H31.1885V2.64062H33.8105C34.5723 2.64062 35.1761 2.83431 35.6221 3.22168C36.068 3.60905 36.291 4.13314 36.291 4.79395C36.291 5.4873 36.0762 6.02279 35.6465 6.40039C35.2201 6.77474 34.613 6.96354 33.8252 6.9668H32.1211V7.63574H33.7568V8.40723ZM32.1211 6.2002H33.8105C34.3151 6.2002 34.6992 6.08138 34.9629 5.84375C35.2266 5.60612 35.3584 5.25944 35.3584 4.80371C35.3584 4.3903 35.2217 4.05664 34.9482 3.80273C34.6748 3.54557 34.3053 3.41536 33.8398 3.41211H32.1211V6.2002Z" fill="#464646" fill-opacity="0.55"/>
<line y1="-0.5" x2="36.8923" y2="-0.5" transform="matrix(0.99593 -0.0901281 0.0849491 0.996385 0.663208 8.25)" stroke="#FF4343"/>
</svg>
