<svg width="39" height="13" viewBox="0 0 39 13" fill="none" xmlns="http://www.w3.org/2000/svg">
<path d="M4.90869 5.75586H5.5874C6.01383 5.74935 6.34912 5.63704 6.59326 5.41895C6.8374 5.20085 6.95947 4.90625 6.95947 4.53516C6.95947 3.70182 6.54443 3.28516 5.71436 3.28516C5.32373 3.28516 5.01123 3.39746 4.77686 3.62207C4.54574 3.84342 4.43018 4.13802 4.43018 4.50586H3.52686C3.52686 3.94271 3.73193 3.47559 4.14209 3.10449C4.5555 2.73014 5.07959 2.54297 5.71436 2.54297C6.38493 2.54297 6.91064 2.72038 7.2915 3.0752C7.67236 3.43001 7.86279 3.92318 7.86279 4.55469C7.86279 4.86393 7.76188 5.16341 7.56006 5.45312C7.36149 5.74284 7.08968 5.95931 6.74463 6.10254C7.13525 6.22624 7.43636 6.43132 7.64795 6.71777C7.86279 7.00423 7.97021 7.35417 7.97021 7.76758C7.97021 8.4056 7.76188 8.91178 7.34521 9.28613C6.92855 9.66048 6.38656 9.84766 5.71924 9.84766C5.05192 9.84766 4.5083 9.66699 4.08838 9.30566C3.67171 8.94434 3.46338 8.46745 3.46338 7.875H4.37158C4.37158 8.24935 4.49365 8.54883 4.73779 8.77344C4.98193 8.99805 5.30908 9.11035 5.71924 9.11035C6.15544 9.11035 6.4891 8.99642 6.72021 8.76855C6.95133 8.54069 7.06689 8.21354 7.06689 7.78711C7.06689 7.3737 6.93994 7.05632 6.68604 6.83496C6.43213 6.61361 6.06592 6.49967 5.5874 6.49316H4.90869V5.75586ZM16.2808 3.14844L13.3364 9.75H12.3892L15.3237 3.38281H11.4761V2.64062H16.2808V3.14844ZM20.7681 6.625C20.5793 6.84961 20.353 7.03027 20.0894 7.16699C19.8289 7.30371 19.5425 7.37207 19.23 7.37207C18.8198 7.37207 18.4618 7.27116 18.1558 7.06934C17.853 6.86751 17.6187 6.58431 17.4526 6.21973C17.2866 5.85189 17.2036 5.44661 17.2036 5.00391C17.2036 4.52865 17.2931 4.10059 17.4722 3.71973C17.6545 3.33887 17.9116 3.04753 18.2437 2.8457C18.5757 2.64388 18.9631 2.54297 19.4058 2.54297C20.1089 2.54297 20.6623 2.80664 21.0659 3.33398C21.4728 3.85807 21.6763 4.57422 21.6763 5.48242V5.74609C21.6763 7.12956 21.4028 8.1403 20.856 8.77832C20.3091 9.41309 19.4839 9.73861 18.3804 9.75488H18.2046V8.99316H18.395C19.1405 8.98014 19.7134 8.78646 20.1138 8.41211C20.5142 8.03451 20.7323 7.4388 20.7681 6.625ZM19.3765 6.625C19.6792 6.625 19.9575 6.53223 20.2114 6.34668C20.4686 6.16113 20.6558 5.93164 20.7729 5.6582V5.29688C20.7729 4.70443 20.6444 4.22266 20.3872 3.85156C20.13 3.48047 19.8045 3.29492 19.4106 3.29492C19.0135 3.29492 18.6945 3.44792 18.4536 3.75391C18.2127 4.05664 18.0923 4.45703 18.0923 4.95508C18.0923 5.4401 18.2078 5.84049 18.439 6.15625C18.6733 6.46875 18.9858 6.625 19.3765 6.625ZM27.3794 6.71777C27.3794 7.77572 27.1987 8.56185 26.8374 9.07617C26.4761 9.59049 25.9113 9.84766 25.1431 9.84766C24.3846 9.84766 23.8231 9.59701 23.4585 9.0957C23.0939 8.59115 22.9051 7.83919 22.8921 6.83984V5.63379C22.8921 4.58887 23.0728 3.8125 23.4341 3.30469C23.7954 2.79688 24.3618 2.54297 25.1333 2.54297C25.8983 2.54297 26.4614 2.78874 26.8228 3.28027C27.1841 3.76855 27.3696 4.52376 27.3794 5.5459V6.71777ZM26.4761 5.48242C26.4761 4.71745 26.3687 4.16081 26.1538 3.8125C25.939 3.46094 25.5988 3.28516 25.1333 3.28516C24.6711 3.28516 24.3341 3.45931 24.1226 3.80762C23.911 4.15592 23.8019 4.69141 23.7954 5.41406V6.85938C23.7954 7.6276 23.9061 8.19564 24.1274 8.56348C24.3521 8.92806 24.6906 9.11035 25.1431 9.11035C25.589 9.11035 25.9194 8.93783 26.1343 8.59277C26.3524 8.24772 26.4663 7.7041 26.4761 6.96191V5.48242ZM34.1567 8.40723H32.521V9.75H31.5884V8.40723H30.5776V7.63574H31.5884V6.9668H30.5776V6.2002H31.5884V2.64062H34.2104C34.9722 2.64062 35.576 2.83431 36.022 3.22168C36.4679 3.60905 36.6909 4.13314 36.6909 4.79395C36.6909 5.4873 36.4761 6.02279 36.0464 6.40039C35.62 6.77474 35.0129 6.96354 34.2251 6.9668H32.521V7.63574H34.1567V8.40723ZM32.521 6.2002H34.2104C34.715 6.2002 35.0991 6.08138 35.3628 5.84375C35.6265 5.60612 35.7583 5.25944 35.7583 4.80371C35.7583 4.3903 35.6216 4.05664 35.3481 3.80273C35.0747 3.54557 34.7052 3.41536 34.2397 3.41211H32.521V6.2002Z" fill="#464646" fill-opacity="0.55"/>
<line y1="-0.5" x2="36.8923" y2="-0.5" transform="matrix(0.99593 -0.0901281 0.0849491 0.996385 1.06311 8.25)" stroke="#FF4343"/>
</svg>
