<svg width="38" height="13" viewBox="0 0 38 13" fill="none" xmlns="http://www.w3.org/2000/svg">
<path d="M6.93896 6.375C6.75016 6.59961 6.52393 6.78027 6.26025 6.91699C5.99984 7.05371 5.71338 7.12207 5.40088 7.12207C4.99072 7.12207 4.63265 7.02116 4.32666 6.81934C4.02393 6.61751 3.78955 6.33431 3.62354 5.96973C3.45752 5.60189 3.37451 5.19661 3.37451 4.75391C3.37451 4.27865 3.46403 3.85059 3.64307 3.46973C3.82536 3.08887 4.08252 2.79753 4.41455 2.5957C4.74658 2.39388 5.13395 2.29297 5.57666 2.29297C6.27979 2.29297 6.83317 2.55664 7.23682 3.08398C7.64372 3.60807 7.84717 4.32422 7.84717 5.23242V5.49609C7.84717 6.87956 7.57373 7.8903 7.02686 8.52832C6.47998 9.16309 5.65479 9.48861 4.55127 9.50488H4.37549V8.74316H4.56592C5.31136 8.73014 5.88428 8.53646 6.28467 8.16211C6.68506 7.78451 6.90316 7.1888 6.93896 6.375ZM5.54736 6.375C5.8501 6.375 6.12842 6.28223 6.38232 6.09668C6.63949 5.91113 6.82666 5.68164 6.94385 5.4082V5.04688C6.94385 4.45443 6.81527 3.97266 6.55811 3.60156C6.30094 3.23047 5.97542 3.04492 5.58154 3.04492C5.18441 3.04492 4.8654 3.19792 4.62451 3.50391C4.38363 3.80664 4.26318 4.20703 4.26318 4.70508C4.26318 5.1901 4.37874 5.59049 4.60986 5.90625C4.84424 6.21875 5.15674 6.375 5.54736 6.375ZM12.5542 6.375C12.3654 6.59961 12.1392 6.78027 11.8755 6.91699C11.6151 7.05371 11.3286 7.12207 11.0161 7.12207C10.606 7.12207 10.2479 7.02116 9.94189 6.81934C9.63916 6.61751 9.40479 6.33431 9.23877 5.96973C9.07275 5.60189 8.98975 5.19661 8.98975 4.75391C8.98975 4.27865 9.07926 3.85059 9.2583 3.46973C9.44059 3.08887 9.69775 2.79753 10.0298 2.5957C10.3618 2.39388 10.7492 2.29297 11.1919 2.29297C11.895 2.29297 12.4484 2.55664 12.8521 3.08398C13.259 3.60807 13.4624 4.32422 13.4624 5.23242V5.49609C13.4624 6.87956 13.189 7.8903 12.6421 8.52832C12.0952 9.16309 11.27 9.48861 10.1665 9.50488H9.99072V8.74316H10.1812C10.9266 8.73014 11.4995 8.53646 11.8999 8.16211C12.3003 7.78451 12.5184 7.1888 12.5542 6.375ZM11.1626 6.375C11.4653 6.375 11.7437 6.28223 11.9976 6.09668C12.2547 5.91113 12.4419 5.68164 12.5591 5.4082V5.04688C12.5591 4.45443 12.4305 3.97266 12.1733 3.60156C11.9162 3.23047 11.5907 3.04492 11.1968 3.04492C10.7996 3.04492 10.4806 3.19792 10.2397 3.50391C9.99886 3.80664 9.87842 4.20703 9.87842 4.70508C9.87842 5.1901 9.99398 5.59049 10.2251 5.90625C10.4595 6.21875 10.772 6.375 11.1626 6.375ZM19.1655 6.46777C19.1655 7.52572 18.9849 8.31185 18.6235 8.82617C18.2622 9.34049 17.6974 9.59766 16.9292 9.59766C16.1707 9.59766 15.6092 9.34701 15.2446 8.8457C14.88 8.34115 14.6912 7.58919 14.6782 6.58984V5.38379C14.6782 4.33887 14.8589 3.5625 15.2202 3.05469C15.5815 2.54688 16.1479 2.29297 16.9194 2.29297C17.6844 2.29297 18.2476 2.53874 18.6089 3.03027C18.9702 3.51855 19.1558 4.27376 19.1655 5.2959V6.46777ZM18.2622 5.23242C18.2622 4.46745 18.1548 3.91081 17.9399 3.5625C17.7251 3.21094 17.3849 3.03516 16.9194 3.03516C16.4572 3.03516 16.1203 3.20931 15.9087 3.55762C15.6971 3.90592 15.5881 4.44141 15.5815 5.16406V6.60938C15.5815 7.3776 15.6922 7.94564 15.9136 8.31348C16.1382 8.67806 16.4767 8.86035 16.9292 8.86035C17.3752 8.86035 17.7056 8.68783 17.9204 8.34277C18.1385 7.99772 18.2524 7.4541 18.2622 6.71191V5.23242ZM25.9429 8.15723H24.3071V9.5H23.3745V8.15723H22.3638V7.38574H23.3745V6.7168H22.3638V5.9502H23.3745V2.39062H25.9966C26.7583 2.39062 27.3621 2.58431 27.8081 2.97168C28.2541 3.35905 28.4771 3.88314 28.4771 4.54395C28.4771 5.2373 28.2622 5.77279 27.8325 6.15039C27.4061 6.52474 26.799 6.71354 26.0112 6.7168H24.3071V7.38574H25.9429V8.15723ZM24.3071 5.9502H25.9966C26.5011 5.9502 26.8853 5.83138 27.1489 5.59375C27.4126 5.35612 27.5444 5.00944 27.5444 4.55371C27.5444 4.1403 27.4077 3.80664 27.1343 3.55273C26.8608 3.29557 26.4914 3.16536 26.0259 3.16211H24.3071V5.9502Z" fill="#464646" fill-opacity="0.55"/>
<line y1="-0.5" x2="36.5639" y2="-0.5" transform="matrix(0.996133 -0.0878554 0.130387 0.991463 0.444092 8)" stroke="#FF4343"/>
</svg>
